<?xml version="1.0" encoding="UTF-8" standalone="no"?>
<!-- Created with Inkscape (http://www.inkscape.org/) -->

<svg
   xmlns:dc="http://purl.org/dc/elements/1.1/"
   xmlns:cc="http://creativecommons.org/ns#"
   xmlns:rdf="http://www.w3.org/1999/02/22-rdf-syntax-ns#"
   xmlns:svg="http://www.w3.org/2000/svg"
   xmlns="http://www.w3.org/2000/svg"
   xmlns:sodipodi="http://sodipodi.sourceforge.net/DTD/sodipodi-0.dtd"
   xmlns:inkscape="http://www.inkscape.org/namespaces/inkscape"
   width="45.777855mm"
   height="46.360401mm"
   viewBox="0 0 45.777855 46.360401"
   version="1.1"
   id="svg9684"
   inkscape:version="0.92.2 (5c3e80d, 2017-08-06)"
   sodipodi:docname="Enavi_Viertel_b.svg">
  <defs
     id="defs9678" />
  <sodipodi:namedview
     id="base"
     pagecolor="#ffffff"
     bordercolor="#666666"
     borderopacity="1.0"
     inkscape:pageopacity="0.0"
     inkscape:pageshadow="2"
     inkscape:zoom="1.4"
     inkscape:cx="244.55617"
     inkscape:cy="46.636596"
     inkscape:document-units="mm"
     inkscape:current-layer="layer1"
     showgrid="false"
     inkscape:window-width="1920"
     inkscape:window-height="1031"
     inkscape:window-x="0"
     inkscape:window-y="25"
     inkscape:window-maximized="1"
     fit-margin-top="0"
     fit-margin-left="0"
     fit-margin-right="0"
     fit-margin-bottom="0"
     showguides="true"
     inkscape:guide-bbox="true" />
  <metadata
     id="metadata9681">
    <rdf:RDF>
      <cc:Work
         rdf:about="">
        <dc:format>image/svg+xml</dc:format>
        <dc:type
           rdf:resource="http://purl.org/dc/dcmitype/StillImage" />
        <dc:title></dc:title>
      </cc:Work>
    </rdf:RDF>
  </metadata>
  <g
     inkscape:label="Layer 1"
     inkscape:groupmode="layer"
     id="layer1"
     transform="translate(53.421374,-97.102541)">
    <path
       style="opacity:1;fill:#1A1A1A;fill-opacity:1;stroke:none;stroke-width:0.12066559;stroke-linecap:round;stroke-linejoin:round;stroke-miterlimit:4;stroke-dasharray:none;stroke-opacity:1"
       d="m -42.827286,102.45356 c -0.160501,9.6e-4 -0.320121,0.084 -0.519776,0.24619 -0.399309,0.32433 -7.103592,6.26521 -7.103592,6.26521 v 10.4415 h 5.145379 v -7.73373 h 5.087142 v 7.73373 h 5.145384 v -10.4415 c 0,0 -6.825085,-5.93297 -7.230115,-6.26521 -0.202516,-0.16611 -0.363921,-0.24717 -0.524422,-0.24619 z"
       id="rect2191"
       inkscape:connector-curvature="0" />
    <path
       style="opacity:1;fill:#1A1A1A;fill-opacity:1;stroke:none;stroke-width:0.12608472;stroke-linecap:round;stroke-linejoin:round;stroke-miterlimit:4;stroke-dasharray:none;stroke-opacity:1"
       d="m -42.871459,97.10287 c -0.335431,0.01138 -0.669107,0.135587 -0.941418,0.376129 l -1.526043,1.347894 -6.958969,6.146987 -1.123485,0.99233 0.992562,1.12349 0.992321,1.12348 1.123244,-0.99232 6.959209,-6.147 c 0.461335,-0.41762 0.671337,-0.41313 1.184915,0 l 6.958964,6.147 1.12349,0.99232 0.992073,-1.12348 0.992566,-1.12349 -1.123489,-0.99233 -6.958968,-6.146987 -1.526043,-1.347894 c -0.302066,-0.266828 -0.679615,-0.389296 -1.051297,-0.374657 -0.03656,-9.81e-4 -0.07306,-0.0029 -0.109632,-9.81e-4 z"
       id="rect2254"
       inkscape:connector-curvature="0"
       sodipodi:nodetypes="ccccccccccccccccccsc" />
    <path
       inkscape:connector-curvature="0"
       id="path2278"
       d="m -18.368776,102.45356 c -0.160501,9.6e-4 -0.320122,0.084 -0.519777,0.24619 -0.399314,0.32433 -7.10359,6.26521 -7.10359,6.26521 v 10.4415 h 5.145379 v -7.73373 h 5.087142 v 7.73373 h 5.145379 v -10.4415 c 0,0 -6.825081,-5.93297 -7.230111,-6.26521 -0.202514,-0.16611 -0.363921,-0.24717 -0.524422,-0.24619 z"
       style="opacity:1;fill:#1A1A1A;fill-opacity:1;stroke:none;stroke-width:0.12066559;stroke-linecap:round;stroke-linejoin:round;stroke-miterlimit:4;stroke-dasharray:none;stroke-opacity:1" />
    <path
       sodipodi:nodetypes="ccccccccccccccccccsc"
       inkscape:connector-curvature="0"
       id="path2280"
       d="m -18.412949,97.10287 c -0.335431,0.01138 -0.669106,0.135587 -0.941417,0.376129 l -1.526045,1.347894 -6.958968,6.146987 -1.123485,0.99233 0.992562,1.12349 0.992322,1.12348 1.123243,-0.99232 6.959209,-6.147 c 0.461335,-0.41762 0.671338,-0.41313 1.18491,0 l 6.958969,6.147 1.1234899,0.99232 0.9920733,-1.12348 0.9925663,-1.12349 -1.1234894,-0.99233 -6.9589671,-6.146987 -1.526044,-1.347894 c -0.302065,-0.266828 -0.679614,-0.389296 -1.051296,-0.374657 -0.03656,-9.81e-4 -0.07306,-0.0029 -0.109633,-9.81e-4 z"
       style="opacity:1;fill:#1A1A1A;fill-opacity:1;stroke:none;stroke-width:0.12608472;stroke-linecap:round;stroke-linejoin:round;stroke-miterlimit:4;stroke-dasharray:none;stroke-opacity:1" />
    <path
       inkscape:connector-curvature="0"
       id="path2282"
       d="m -42.827286,126.51005 c -0.160501,9.3e-4 -0.320121,0.084 -0.519776,0.24617 -0.399309,0.32433 -7.103592,6.26521 -7.103592,6.26521 v 10.44151 h 5.145379 v -7.73374 h 5.087142 v 7.73374 h 5.145384 v -10.44151 c 0,0 -6.825085,-5.93295 -7.230115,-6.26521 -0.202516,-0.16612 -0.363921,-0.24716 -0.524422,-0.24617 z"
       style="opacity:1;fill:#1A1A1A;fill-opacity:1;stroke:none;stroke-width:0.12066559;stroke-linecap:round;stroke-linejoin:round;stroke-miterlimit:4;stroke-dasharray:none;stroke-opacity:1" />
    <path
       sodipodi:nodetypes="ccccccccccccccccccsc"
       inkscape:connector-curvature="0"
       id="path2284"
       d="m -42.871459,121.15933 c -0.335431,0.0114 -0.669107,0.13559 -0.941418,0.37613 l -1.526043,1.34789 -6.958969,6.14702 -1.123485,0.99232 0.992562,1.12349 0.992321,1.12349 1.123244,-0.99233 6.959209,-6.14701 c 0.461335,-0.41763 0.671337,-0.41314 1.184915,0 l 6.958964,6.14701 1.12349,0.99233 0.992073,-1.12349 0.992566,-1.12349 -1.123489,-0.99232 -6.958968,-6.14702 -1.526043,-1.34789 c -0.302066,-0.26682 -0.679615,-0.38929 -1.051297,-0.37467 -0.03656,-9.8e-4 -0.07306,-0.003 -0.109632,-9.8e-4 z"
       style="opacity:1;fill:#1A1A1A;fill-opacity:1;stroke:none;stroke-width:0.12608472;stroke-linecap:round;stroke-linejoin:round;stroke-miterlimit:4;stroke-dasharray:none;stroke-opacity:1" />
    <path
       style="opacity:1;fill:#1A1A1A;fill-opacity:1;stroke:none;stroke-width:0.12066559;stroke-linecap:round;stroke-linejoin:round;stroke-miterlimit:4;stroke-dasharray:none;stroke-opacity:1"
       d="m -18.368776,126.51005 c -0.160501,9.3e-4 -0.320122,0.084 -0.519777,0.24617 -0.399314,0.32433 -7.10359,6.26521 -7.10359,6.26521 v 10.44151 h 5.145379 v -7.73374 h 5.087142 v 7.73374 h 5.145379 v -10.44151 c 0,0 -6.825081,-5.93295 -7.230111,-6.26521 -0.202514,-0.16612 -0.363921,-0.24716 -0.524422,-0.24617 z"
       id="path2286"
       inkscape:connector-curvature="0" />
    <path
       style="opacity:1;fill:#1A1A1A;fill-opacity:1;stroke:none;stroke-width:0.12608472;stroke-linecap:round;stroke-linejoin:round;stroke-miterlimit:4;stroke-dasharray:none;stroke-opacity:1"
       d="m -18.412949,121.15933 c -0.335431,0.0114 -0.669106,0.13559 -0.941417,0.37613 l -1.526045,1.34789 -6.958968,6.14702 -1.123485,0.99232 0.992562,1.12349 0.992322,1.12349 1.123243,-0.99233 6.959209,-6.14701 c 0.461335,-0.41763 0.671338,-0.41314 1.18491,0 l 6.958969,6.14701 1.1234899,0.99233 0.9920733,-1.12349 0.9925663,-1.12349 -1.1234894,-0.99232 -6.9589671,-6.14702 -1.526044,-1.34789 c -0.302065,-0.26682 -0.679614,-0.38929 -1.051296,-0.37467 -0.03656,-9.8e-4 -0.07306,-0.003 -0.109633,-9.8e-4 z"
       id="path2288"
       inkscape:connector-curvature="0"
       sodipodi:nodetypes="ccccccccccccccccccsc" />
  </g>
</svg>
